<svg width="960" height="720" xmlns="http://www.w3.org/2000/svg" xmlns:xlink="http://www.w3.org/1999/xlink" overflow="hidden"><defs><clipPath id="clip0"><rect x="0" y="0" width="960" height="720"/></clipPath></defs><g clip-path="url(#clip0)"><rect x="0" y="0" width="960" height="720" fill="#FFFFFF"/><path d="M633 65C681.601 65 721 71.5662 721 79.666L721 269.834C721 277.934 760.399 284.5 809 284.5 760.399 284.5 721 291.066 721 299.166L721 489.334C721 497.434 681.601 504 633 504" stroke="#000000" stroke-width="20" stroke-miterlimit="8" fill="none" fill-rule="evenodd"/><path d="M0 0 93.3573 0.000104987" stroke="#000000" stroke-width="20" stroke-linecap="round" stroke-miterlimit="8" fill="none" fill-rule="evenodd" transform="matrix(-1 0 0 1 820.357 360)"/><path d="M0 0 93.3573 0.000104987" stroke="#000000" stroke-width="20" stroke-linecap="round" stroke-miterlimit="8" fill="none" fill-rule="evenodd" transform="matrix(-1 0 0 1 820.357 211)"/><text font-family="Brush Script MT,Brush Script MT_MSFontService,sans-serif" font-style="italic" font-weight="400" font-size="319" transform="translate(274.167 390)">SS<tspan font-size="184" x="0.833221" y="259">Design</tspan></text><path d="M0 0 93.3573 0.000104987" stroke="#000000" stroke-width="20" stroke-linecap="round" stroke-miterlimit="8" fill="none" fill-rule="evenodd" transform="matrix(-1 0 0 1 894.357 285)"/><path d="M342 504C293.399 504 254 497.434 254 489.334L254 299.166C254 291.066 214.601 284.5 166 284.5 214.601 284.5 254 277.934 254 269.834L254 79.666C254 71.5662 293.399 65 342 65" stroke="#000000" stroke-width="20" stroke-miterlimit="8" fill="none" fill-rule="evenodd"/><path d="M0 0 93.3573 0.000104987" stroke="#000000" stroke-width="20" stroke-linecap="round" stroke-miterlimit="8" fill="none" fill-rule="evenodd" transform="matrix(1 -1.22465e-16 -1.22465e-16 -1 152 360)"/><path d="M0 0 93.3573 0.000104987" stroke="#000000" stroke-width="20" stroke-linecap="round" stroke-miterlimit="8" fill="none" fill-rule="evenodd" transform="matrix(1 -1.22465e-16 -1.22465e-16 -1 152 211)"/><path d="M0 0 93.3573 0.000104987" stroke="#000000" stroke-width="20" stroke-linecap="round" stroke-miterlimit="8" fill="none" fill-rule="evenodd" transform="matrix(1 -1.22465e-16 -1.22465e-16 -1 86 285)"/></g></svg>