<svg width="960" height="720" xmlns="http://www.w3.org/2000/svg" xmlns:xlink="http://www.w3.org/1999/xlink" overflow="hidden"><defs><clipPath id="clip0"><rect x="0" y="0" width="960" height="720"/></clipPath></defs><g clip-path="url(#clip0)"><rect x="0" y="0" width="960" height="720" fill="#FFFFFF"/><text font-family="Brush Script MT,Brush Script MT_MSFontService,sans-serif" font-style="italic" font-weight="400" font-size="319" transform="translate(265.559 355)">SS<tspan font-size="184" x="9.44119" y="246">Design</tspan></text><path d="M216.5 79.5001 331.5 79.5001 293.167 116.5 253.5 116.5 253.5 154.787 216.5 190.5Z" stroke="#000000" stroke-width="0" stroke-miterlimit="8" fill="#000000" fill-rule="evenodd" fill-opacity="0.858824"/><path d="M744.5 79.5001 744.5 195.5 707.834 156.834 707.834 116.166 669.27 116.166 634.5 79.5001Z" stroke="#000000" stroke-width="0" stroke-miterlimit="8" fill="#000000" fill-rule="evenodd" fill-opacity="0.858824"/><path d="M218.5 460.5 218.5 345.5 255.166 383.833 255.166 423.834 293.428 423.834 328.5 460.5Z" stroke="#000000" stroke-width="0" stroke-miterlimit="8" fill="#000000" fill-rule="evenodd" fill-opacity="0.858824"/><path d="M747.5 455.5 632.5 455.5 670.833 418.834 710.834 418.834 710.834 380.572 747.5 345.5Z" stroke="#000000" stroke-width="0" stroke-miterlimit="8" fill="#000000" fill-rule="evenodd" fill-opacity="0.858824"/></g></svg>